<?xml version="1.0" encoding="utf-8"?>
<?xml-stylesheet type="text/xsl" href="rss1.xsl"?>
<rss version="2.0" xmlns:atom="http://www.w3.org/2005/Atom" xmlns:content="http://purl.org/rss/1.0/modules/content/" xmlns:dc="http://purl.org/dc/elements/1.1/" xmlns:media="http://search.yahoo.com/mrss/">
<channel>
 <title>Getty</title>
 <link>http://www.gettyimg.com/</link>
 <atom:link href="http://www.gettyimg.com/" rel="self" type="application/rss+xml" />

 
                <item>
                <title><![CDATA[【UPSCALED】London Grammar - Hey Now [4K AI Upscale | HEVC 10-bit | PCM 24-bit 44.1 kHz]]]></title>
                <link><![CDATA[https://sharemania.us/threads/london-grammar-hey-now-4k-ai-upscale-hevc-10-bit-pcm-24-bit-44-1-khz.237661/]]></link>
                <description><![CDATA[<article>
<blockquote class="messageText SelectQuoteContainer ugc baseHtml">
<img src="https://i.vimeocdn.com/video/592214513-d811d5e1b73999325510cb1748c58312e0f57ac0c0735863ac6b07ec3fc0689a-d.webp" class="bbCodeImage LbImage" alt="[​IMG]" data-url="https://i.vimeocdn.com/video/592214513-d811d5e1b73999325510cb1748c58312e0f57ac0c0735863ac6b07ec3fc0689a-d.webp" style=""> <br>
<br>
<b>Genre: <span style="color: #0059b3">Electronic, Rock, Pop</span> <br>
Style: <span style="color: #0059b3">Indie Pop, Synth-pop</span> <br>
Year: <span style="color: #0059b3">2013</span> <br>
Video Source: <span style="color: #0059b3">Vimeo, WebMaster</span><br>
Audio Source: <span style="color: #0059b3">Qobuz, Hi-Res</span></b><br>
<br>
"<b>Hey Now</b>" is a song by British trip hop trio London Grammar from their debut studio album <i>If You Wait</i> (2013). It was released in the United Kingdom on 16 March 2014 as a digital download. It has peaked at number 37 on the UK Singles Chart, and has also charted in France. It was written by Hannah Reid, Dot Major, Daniel Rothman and produced by Tim Bran, Roy Kerr and London Grammar.<br>
<br>
The music video of "Hey Now", directed by Chris Ullens, was released on YouTube on 19 February 2014. As of February 2023, it has received more than 35 million views. What the clip may lack in any observable plot, it more than makes up for with beguiling visuals that enhance the track’s haunting, ethereal feel. The video plays with stop-motion animation to create this fantastical forest landscape, one where tiny orbs of light combine to form these hairy shapes that generate large light shows. It’s all very surreal and matches the tone of the song perfectly.<br>
<br>
<b>Release Info</b><br>
The video track is upscaled from 1080p to 4K with Topaz Video AI and encoded to HEVC 10-bit.<br>
The PCM track is lossless (Qobuz Hi-Res 24-bit 44.1 kHz) and synced with Adobe Audition.<br>
The timed lyrics are synced and edited. Enable the subtitles to see the lyrics.<br>
<br>
<div class="ToggleTriggerAnchor bbCodeSpoilerContainer">
<button type="button" class="button bbCodeSpoilerButton ToggleTrigger Tooltip JsOnly" data-target="> .SpoilerTarget"><span>Spoiler: <span class="SpoilerTitle">Media Info</span></span></button>
<div class="SpoilerTarget bbCodeSpoilerText">
<div class="bbCodeBlock bbCodeCode">
<div class="type">Code:</div>
<pre>General
Unique ID                      : 318098720719803639279463300713190402600 (0xEF4F95CC6D3DA69817D46334FC422A28)
Complete name                  : London Grammar - Hey Now.mkv
Format                         : Matroska
Format version                 : Version 4 / Version 2
File size                      : 471 MiB
Duration                       : 3 min 24 s
Overall bit rate               : 19.3 Mb/s
Frame rate                     : 25.000 FPS
Encoded date                   : 2024-02-13 14:08:00 UTC
Writing application            : mkvmerge v82.0 ('I'm The President') 64-bit
Writing library                : libebml v1.4.5 + libmatroska v1.7.1

Video
ID                             : 1
Format                         : HEVC
Format/Info                    : High Efficiency Video Coding
Format profile                 : Main 10@L5@Main
Codec ID                       : V_MPEGH/ISO/HEVC
Duration                       : 3 min 24 s
Bit rate                       : 16.8 Mb/s
Width                          : 3 840 pixels
Height                         : 2 160 pixels
Display aspect ratio           : 16:9
Frame rate mode                : Constant
Frame rate                     : 25.000 FPS
Color space                    : YUV
Chroma subsampling             : 4:2:0
Bit depth                      : 10 bits
Bits/(Pixel*Frame)             : 0.081
Stream size                    : 411 MiB (87%)
Language                       : English
Default                        : Yes
Forced                         : No
Color range                    : Limited
Color primaries                : BT.709
Transfer characteristics       : BT.709
Matrix coefficients            : BT.709

Audio #1
ID                             : 2
Format                         : PCM
Format settings                : Little / Signed
Codec ID                       : A_PCM/INT/LIT
Duration                       : 3 min 24 s
Bit rate mode                  : Constant
Bit rate                       : 2 117 kb/s
Channel(s)                     : 2 channels
Sampling rate                  : 44.1 kHz
Frame rate                     : 25.003 FPS (1764 SPF)
Bit depth                      : 24 bits
Stream size                    : 51.7 MiB (11%)
Title                          : Lossless 24-bit
Language                       : English
Default                        : Yes
Forced                         : No

Audio #2
ID                             : 3
Format                         : AAC LC
Format/Info                    : Advanced Audio Codec Low Complexity
Codec ID                       : A_AAC-2
Duration                       : 3 min 24 s
Bit rate                       : 309 kb/s
Channel(s)                     : 2 channels
Channel layout                 : L R
Sampling rate                  : 44.1 kHz
Frame rate                     : 43.066 FPS (1024 SPF)
Compression mode               : Lossy
Stream size                    : 7.55 MiB (2%)
Title                          : Original Track
Language                       : English
Default                        : No
Forced                         : No

Text
ID                             : 4
Format                         : UTF-8
Codec ID                       : S_TEXT/UTF8
Codec ID/Info                  : UTF-8 Plain Text
Duration                       : 3 min 5 s
Bit rate                       : 25 b/s
Frame rate                     : 0.151 FPS
Count of elements              : 28
Stream size                    : 598 Bytes (0%)
Title                          : Lyrics
Language                       : English
Default                        : No
Forced                         : No
</pre>
</div></div>
</div><br>
<b>Note to the peeps @ RuTracker: Give credit if you post the work of someone else!</b><br>
- Hurby4 aka ADHDerby<br>
<br>
<div class="bbCodeBlock bbCodeVfcHH HiddenContent">
<div class="attribution type">Hidden Content:</div>
<blockquote>You must reply before you can see the hidden data contained here.</blockquote>
</div>
<div class="messageTextEndMarker">&nbsp;</div>
</blockquote>
</article>]]></description>
                <author><![CDATA[ADHDerby]]></author>
                </item>

                </channel></rss>